<svg width="160" height="53" viewBox="0 0 160 53" fill="none" xmlns="http://www.w3.org/2000/svg">
<rect y="0.504395" width="159.475" height="51.9912" rx="10" fill="#151D28"/>
<path d="M104.219 25.5916V28.1972H102.585V29.9059H104.219V35.7119C104.219 37.6944 105.116 38.4874 107.372 38.4874C107.768 38.4874 108.146 38.4402 108.476 38.3835V36.6937C108.193 36.722 108.014 36.7409 107.702 36.7409C106.692 36.7409 106.248 36.2689 106.248 35.1926V29.9059H108.476V28.1972H106.248V25.5916H104.219Z" fill="white"/>
<path d="M114.224 38.629C117.226 38.629 119.067 36.6182 119.067 33.2856C119.067 29.972 117.217 27.9517 114.224 27.9517C111.222 27.9517 109.372 29.972 109.372 33.2856C109.372 36.6182 111.213 38.629 114.224 38.629ZM114.224 36.8258C112.459 36.8258 111.468 35.5325 111.468 33.2856C111.468 31.0577 112.459 29.7549 114.224 29.7549C115.98 29.7549 116.981 31.0577 116.981 33.2856C116.981 35.5231 115.98 36.8258 114.224 36.8258Z" fill="white"/>
<path d="M120.642 38.4307H122.672V32.3605C122.672 30.9161 123.758 29.9437 125.296 29.9437C125.655 29.9437 126.259 30.0098 126.429 30.0664V28.065C126.212 28.0084 125.825 27.9801 125.523 27.9801C124.182 27.9801 123.04 28.7164 122.747 29.7266H122.596V28.15H120.642V38.4307Z" fill="white"/>
<path d="M131.469 29.6794C132.97 29.6794 133.952 30.7273 133.999 32.3416H128.807C128.92 30.7367 129.968 29.6794 131.469 29.6794ZM133.99 35.6552C133.612 36.4577 132.772 36.9014 131.545 36.9014C129.921 36.9014 128.873 35.7591 128.807 33.9559V33.8426H136.067V33.1346C136.067 29.9059 134.339 27.9517 131.478 27.9517C128.58 27.9517 126.739 30.0381 126.739 33.3234C126.739 36.6087 128.542 38.629 131.488 38.629C133.839 38.629 135.481 37.4961 135.944 35.6552H133.99Z" fill="white"/>
<path d="M90.9081 34.6342C91.0647 37.1587 93.1684 38.7732 96.2996 38.7732C99.646 38.7732 101.74 37.0804 101.74 34.3798C101.74 32.2565 100.546 31.0823 97.6499 30.4072L96.0941 30.0256C94.2545 29.595 93.5109 29.0177 93.5109 28.0099C93.5109 26.7379 94.6655 25.9061 96.3974 25.9061C98.0413 25.9061 99.1763 26.7183 99.3818 28.0197H101.515C101.388 25.642 99.2937 23.9688 96.4268 23.9688C93.3446 23.9688 91.2897 25.642 91.2897 28.1567C91.2897 30.231 92.4541 31.4639 95.008 32.0608L96.828 32.5011C98.6969 32.9414 99.5188 33.5872 99.5188 34.6636C99.5188 35.916 98.2272 36.826 96.4659 36.826C94.5774 36.826 93.2663 35.9747 93.0804 34.6342H90.9081Z" fill="white"/>
<path d="M69.8824 27.9801C68.4852 27.9801 67.2768 28.6787 66.6537 29.8493H66.5026V28.15H64.5485V41.8482H66.5782V36.8731H66.7387C67.2768 37.9587 68.438 38.6007 69.9012 38.6007C72.4974 38.6007 74.1495 36.5521 74.1495 33.2856C74.1495 30.0192 72.4974 27.9801 69.8824 27.9801ZM69.3065 36.7786C67.6072 36.7786 66.5404 35.4381 66.5404 33.2951C66.5404 31.1426 67.6072 29.8021 69.3159 29.8021C71.0341 29.8021 72.0631 31.1143 72.0631 33.2856C72.0631 35.4664 71.0341 36.7786 69.3065 36.7786Z" fill="white"/>
<path d="M81.2518 27.9801C79.8546 27.9801 78.6462 28.6787 78.0231 29.8493H77.8721V28.15H75.9179V41.8482H77.9476V36.8731H78.1081C78.6462 37.9587 79.8074 38.6007 81.2707 38.6007C83.8668 38.6007 85.5189 36.5521 85.5189 33.2856C85.5189 30.0192 83.8668 27.9801 81.2518 27.9801ZM80.6759 36.7786C78.9766 36.7786 77.9098 35.4381 77.9098 33.2951C77.9098 31.1426 78.9766 29.8021 80.6853 29.8021C82.4035 29.8021 83.4325 31.1143 83.4325 33.2856C83.4325 35.4664 82.4035 36.7786 80.6759 36.7786Z" fill="white"/>
<path d="M60.9068 38.4307H63.2356L58.1377 24.3112H55.7795L50.6816 38.4307H52.9322L54.2335 34.6831H59.6152L60.9068 38.4307ZM56.8461 26.8748H57.0124L59.0575 32.8436H54.7913L56.8461 26.8748Z" fill="white"/>
<path d="M52.0469 13.6603V20.4717H54.5061C56.5358 20.4717 57.7112 19.2208 57.7112 17.0448C57.7112 14.9018 56.5264 13.6603 54.5061 13.6603H52.0469ZM53.1042 14.6233H54.3881C55.7995 14.6233 56.635 15.5201 56.635 17.0589C56.635 18.6213 55.8136 19.5087 54.3881 19.5087H53.1042V14.6233Z" fill="white"/>
<path d="M61.3109 20.5708C62.8119 20.5708 63.7324 19.5654 63.7324 17.8991C63.7324 16.2423 62.8072 15.2322 61.3109 15.2322C59.8098 15.2322 58.8847 16.2423 58.8847 17.8991C58.8847 19.5654 59.8051 20.5708 61.3109 20.5708ZM61.3109 19.6692C60.4282 19.6692 59.9326 19.0226 59.9326 17.8991C59.9326 16.7852 60.4282 16.1338 61.3109 16.1338C62.1888 16.1338 62.6892 16.7852 62.6892 17.8991C62.6892 19.0178 62.1888 19.6692 61.3109 19.6692Z" fill="white"/>
<path d="M71.5708 15.3313H70.556L69.6403 19.2539H69.56L68.5027 15.3313H67.5303L66.473 19.2539H66.3974L65.477 15.3313H64.448L65.864 20.4717H66.9072L67.9646 16.686H68.0448L69.1069 20.4717H70.1595L71.5708 15.3313Z" fill="white"/>
<path d="M72.7396 20.4717H73.7544V17.4649C73.7544 16.6624 74.2312 16.1621 74.9817 16.1621C75.7322 16.1621 76.091 16.5727 76.091 17.3988V20.4717H77.1058V17.1439C77.1058 15.9213 76.4733 15.2322 75.3263 15.2322C74.5522 15.2322 74.0424 15.5768 73.7922 16.1479H73.7167V15.3313H72.7396V20.4717Z" fill="white"/>
<path d="M78.7041 20.4717H79.719V13.3252H78.7041V20.4717Z" fill="white"/>
<path d="M83.5358 20.5708C85.0368 20.5708 85.9573 19.5654 85.9573 17.8991C85.9573 16.2423 85.0321 15.2322 83.5358 15.2322C82.0347 15.2322 81.1096 16.2423 81.1096 17.8991C81.1096 19.5654 82.03 20.5708 83.5358 20.5708ZM83.5358 19.6692C82.6531 19.6692 82.1575 19.0226 82.1575 17.8991C82.1575 16.7852 82.6531 16.1338 83.5358 16.1338C84.4137 16.1338 84.9141 16.7852 84.9141 17.8991C84.9141 19.0178 84.4137 19.6692 83.5358 19.6692Z" fill="white"/>
<path d="M88.9811 19.7023C88.4288 19.7023 88.0276 19.4332 88.0276 18.9706C88.0276 18.5175 88.3486 18.2768 89.0566 18.2296L90.3122 18.1493V18.5789C90.3122 19.2161 89.7458 19.7023 88.9811 19.7023ZM88.7215 20.5566C89.3965 20.5566 89.9582 20.264 90.265 19.7495H90.3452V20.4717H91.3223V16.9598C91.3223 15.8741 90.5954 15.2322 89.3068 15.2322C88.1409 15.2322 87.3101 15.7986 87.2063 16.6813H88.1881C88.3014 16.3178 88.6931 16.1102 89.2596 16.1102C89.9535 16.1102 90.3122 16.417 90.3122 16.9598V17.4035L88.9197 17.4838C87.6972 17.5593 87.008 18.0927 87.008 19.0178C87.008 19.9572 87.7302 20.5566 88.7215 20.5566Z" fill="white"/>
<path d="M94.7662 20.5566C95.4743 20.5566 96.0738 20.2215 96.3806 19.6598H96.4608V20.4717H97.4332V13.3252H96.4183V16.1479H96.3428C96.0643 15.5815 95.4696 15.2463 94.7662 15.2463C93.4682 15.2463 92.6327 16.2754 92.6327 17.8991C92.6327 19.5276 93.4587 20.5566 94.7662 20.5566ZM95.0542 16.1574C95.9038 16.1574 96.4372 16.8324 96.4372 17.9039C96.4372 18.9801 95.9085 19.6456 95.0542 19.6456C94.1951 19.6456 93.6806 18.9895 93.6806 17.8991C93.6806 16.8182 94.1998 16.1574 95.0542 16.1574Z" fill="white"/>
<path d="M104.014 20.5708C105.515 20.5708 106.436 19.5654 106.436 17.8991C106.436 16.2423 105.511 15.2322 104.014 15.2322C102.513 15.2322 101.588 16.2423 101.588 17.8991C101.588 19.5654 102.508 20.5708 104.014 20.5708ZM104.014 19.6692C103.131 19.6692 102.636 19.0226 102.636 17.8991C102.636 16.7852 103.131 16.1338 104.014 16.1338C104.892 16.1338 105.393 16.7852 105.393 17.8991C105.393 19.0178 104.892 19.6692 104.014 19.6692Z" fill="white"/>
<path d="M107.779 20.4717H108.794V17.4649C108.794 16.6624 109.271 16.1621 110.021 16.1621C110.772 16.1621 111.13 16.5727 111.13 17.3988V20.4717H112.145V17.1439C112.145 15.9213 111.513 15.2322 110.366 15.2322C109.592 15.2322 109.082 15.5768 108.832 16.1479H108.756V15.3313H107.779V20.4717Z" fill="white"/>
<path d="M116.819 14.0521V15.3549H116.003V16.2093H116.819V19.1122C116.819 20.1035 117.268 20.5 118.396 20.5C118.594 20.5 118.783 20.4764 118.948 20.4481V19.6032C118.807 19.6173 118.717 19.6268 118.561 19.6268C118.056 19.6268 117.834 19.3907 117.834 18.8526V16.2093H118.948V15.3549H117.834V14.0521H116.819Z" fill="white"/>
<path d="M120.31 20.4717H121.325V17.4696C121.325 16.6907 121.788 16.1668 122.619 16.1668C123.336 16.1668 123.718 16.5822 123.718 17.4035V20.4717H124.733V17.1533C124.733 15.9308 124.058 15.2369 122.963 15.2369C122.189 15.2369 121.646 15.5815 121.396 16.1574H121.316V13.3252H120.31V20.4717Z" fill="white"/>
<path d="M128.394 16.096C129.145 16.096 129.636 16.6199 129.659 17.4271H127.063C127.12 16.6247 127.644 16.096 128.394 16.096ZM129.655 19.0839C129.466 19.4851 129.046 19.707 128.432 19.707C127.62 19.707 127.096 19.1358 127.063 18.2343V18.1776H130.693V17.8236C130.693 16.2093 129.829 15.2322 128.399 15.2322C126.95 15.2322 126.03 16.2754 126.03 17.918C126.03 19.5607 126.931 20.5708 128.404 20.5708C129.579 20.5708 130.4 20.0044 130.632 19.0839H129.655Z" fill="white"/>
<path d="M39.668 26.8416C39.6926 24.9297 40.7193 23.1208 42.3481 22.1194C41.3206 20.6519 39.5995 19.7215 37.8089 19.6655C35.8991 19.465 34.0476 20.8083 33.0744 20.8083C32.0824 20.8083 30.584 19.6854 28.9704 19.7186C26.8673 19.7865 24.9066 20.9822 23.8834 22.821C21.6838 26.6292 23.3245 32.2259 25.4315 35.3041C26.4856 36.8115 27.7177 38.4952 29.3297 38.4355C30.9072 38.3701 31.4964 37.4296 33.4006 37.4296C35.2871 37.4296 35.8399 38.4355 37.4847 38.3975C39.1774 38.3701 40.2439 36.8835 41.2611 35.3619C42.0185 34.2879 42.6014 33.1008 42.988 31.8448C40.9987 31.0034 39.6703 29.0015 39.668 26.8416Z" fill="white"/>
<path d="M36.5612 17.641C37.4842 16.5331 37.9389 15.109 37.8288 13.6711C36.4187 13.8192 35.1162 14.4932 34.1808 15.5586C33.266 16.5996 32.79 17.9987 32.88 19.3816C34.2906 19.3961 35.6773 18.7404 36.5612 17.641Z" fill="white"/>
</svg>
