<svg width="43" height="11" viewBox="0 0 43 11" fill="none" xmlns="http://www.w3.org/2000/svg">
<path d="M16.1577 2.61816H13.8431C13.7664 2.61812 13.6923 2.64544 13.6341 2.6952C13.5758 2.74497 13.5372 2.81391 13.5253 2.8896L12.5891 8.82488C12.5848 8.85243 12.5865 8.88057 12.5942 8.90739C12.6018 8.9342 12.6151 8.95905 12.6333 8.98021C12.6514 9.00138 12.6739 9.01836 12.6993 9.02999C12.7246 9.04162 12.7521 9.04762 12.78 9.04758H13.885C13.9617 9.04762 14.0359 9.02025 14.0942 8.97042C14.1524 8.92058 14.191 8.85156 14.2028 8.77581L14.4553 7.17497C14.4672 7.09928 14.5057 7.0303 14.5639 6.98048C14.6221 6.93065 14.6962 6.90325 14.7728 6.9032H15.5055C17.0302 6.9032 17.9101 6.16539 18.14 4.70332C18.2435 4.06366 18.1444 3.56107 17.8448 3.20909C17.5159 2.82258 16.9324 2.61816 16.1577 2.61816V2.61816ZM16.4247 4.7859C16.2981 5.61644 15.6636 5.61644 15.05 5.61644H14.7007L14.9457 4.06535C14.9529 4.01997 14.976 3.97864 15.011 3.9488C15.0459 3.91896 15.0903 3.90256 15.1363 3.90256H15.2963C15.7143 3.90256 16.1086 3.90256 16.3124 4.14082C16.4339 4.28297 16.4711 4.49416 16.4247 4.7859V4.7859ZM23.0765 4.75916H21.9681C21.9221 4.75916 21.8777 4.77556 21.8428 4.8054C21.8079 4.83524 21.7847 4.87657 21.7775 4.92195L21.7285 5.23197L21.651 5.1196C21.411 4.77134 20.8759 4.65492 20.3419 4.65492C19.117 4.65492 18.0709 5.58259 17.8672 6.88391C17.7612 7.53305 17.9118 8.15375 18.2801 8.58662C18.6178 8.98463 19.1011 9.15047 19.6761 9.15047C20.663 9.15047 21.2103 8.51589 21.2103 8.51589L21.1609 8.82387C21.1565 8.8514 21.1581 8.87957 21.1656 8.90642C21.1732 8.93327 21.1864 8.95817 21.2045 8.9794C21.2226 9.00063 21.2451 9.01769 21.2704 9.0294C21.2957 9.04111 21.3232 9.0472 21.3511 9.04724H22.3495C22.4262 9.04728 22.5004 9.01991 22.5586 8.97008C22.6169 8.92024 22.6554 8.85122 22.6673 8.77547L23.2664 4.98186C23.2708 4.95438 23.2692 4.92628 23.2616 4.89948C23.2541 4.87269 23.2409 4.84785 23.2228 4.82667C23.2048 4.8055 23.1823 4.7885 23.1571 4.77684C23.1318 4.76518 23.1043 4.75915 23.0765 4.75916V4.75916ZM21.5315 6.9164C21.4245 7.54963 20.922 7.97471 20.2809 7.97471C19.9591 7.97471 19.7019 7.87149 19.5367 7.67587C19.3729 7.4816 19.3106 7.20509 19.3627 6.89711C19.4626 6.2693 19.9736 5.83033 20.6048 5.83033C20.9196 5.83033 21.1755 5.93491 21.344 6.13223C21.5129 6.33157 21.5799 6.60977 21.5315 6.9164V6.9164ZM28.9796 4.75916H27.8658C27.8133 4.75924 27.7616 4.77214 27.7151 4.79673C27.6687 4.82133 27.629 4.85687 27.5995 4.90029L26.0633 7.16313L25.4121 4.98862C25.3921 4.9223 25.3513 4.86418 25.2957 4.82285C25.2401 4.78153 25.1727 4.75919 25.1034 4.75916H24.0089C23.9782 4.75908 23.9479 4.76634 23.9205 4.78033C23.8932 4.79432 23.8696 4.81465 23.8517 4.83961C23.8337 4.86457 23.822 4.89345 23.8176 4.92385C23.8131 4.95424 23.8159 4.98527 23.8258 5.01435L25.0527 8.61471L23.8992 10.243C23.8787 10.2718 23.8666 10.3058 23.8641 10.3411C23.8616 10.3764 23.8689 10.4117 23.8852 10.4432C23.9014 10.4747 23.926 10.501 23.9562 10.5194C23.9865 10.5378 24.0212 10.5476 24.0566 10.5476H25.1691C25.221 10.5476 25.2722 10.5351 25.3182 10.5111C25.3643 10.487 25.4038 10.4522 25.4334 10.4095L29.138 5.06207C29.1581 5.03314 29.1699 4.99926 29.1721 4.96411C29.1743 4.92897 29.1668 4.89389 29.1505 4.86268C29.1342 4.83147 29.1096 4.80533 29.0795 4.78708C29.0494 4.76883 29.0148 4.75918 28.9796 4.75916V4.75916Z" fill="#253B80"/>
<path d="M32.6676 2.6185H30.3526C30.2761 2.61853 30.202 2.64589 30.1438 2.69565C30.0856 2.74541 30.0471 2.8143 30.0352 2.88993L29.099 8.82522C29.0947 8.85272 29.0964 8.88083 29.1039 8.90762C29.1115 8.93441 29.1247 8.95925 29.1428 8.98041C29.1609 9.00158 29.1834 9.01858 29.2086 9.03023C29.2339 9.04188 29.2614 9.04792 29.2893 9.04792H30.4772C30.5308 9.04784 30.5826 9.02864 30.6233 8.99377C30.664 8.95891 30.6909 8.91066 30.6992 8.85771L30.9649 7.17531C30.9767 7.09961 31.0152 7.03064 31.0734 6.98081C31.1317 6.93099 31.2057 6.90358 31.2824 6.90354H32.0147C33.5398 6.90354 34.4194 6.16573 34.6495 4.70365C34.7534 4.064 34.6536 3.56141 34.3541 3.20943C34.0254 2.82292 33.4423 2.6185 32.6676 2.6185V2.6185ZM32.9346 4.78623C32.8084 5.61678 32.1738 5.61678 31.5599 5.61678H31.2109L31.4563 4.06569C31.4633 4.02031 31.4864 3.97894 31.5213 3.94908C31.5562 3.91922 31.6006 3.90284 31.6465 3.9029H31.8066C32.2242 3.9029 32.6189 3.9029 32.8226 4.14116C32.9441 4.28331 32.981 4.4945 32.9346 4.78623V4.78623ZM39.5861 4.7595H38.4783C38.4324 4.75937 38.3879 4.77573 38.353 4.8056C38.3181 4.83548 38.2951 4.87688 38.2881 4.92229L38.2391 5.2323L38.1612 5.11994C37.9213 4.77168 37.3865 4.65526 36.8525 4.65526C35.6276 4.65526 34.5818 5.58293 34.3781 6.88425C34.2725 7.53338 34.4224 8.15409 34.7907 8.58696C35.1291 8.98497 35.6117 9.1508 36.1867 9.1508C37.1736 9.1508 37.7209 8.51622 37.7209 8.51622L37.6715 8.82421C37.6671 8.8518 37.6687 8.88002 37.6763 8.90692C37.6839 8.93382 37.6972 8.95875 37.7153 8.97999C37.7335 9.00124 37.756 9.01828 37.7814 9.02995C37.8068 9.04162 37.8344 9.04764 37.8624 9.04758H38.8604C38.9371 9.04754 39.0111 9.02013 39.0694 8.9703C39.1276 8.92048 39.1661 8.8515 39.1779 8.77581L39.7773 4.98219C39.7815 4.95463 39.7798 4.92648 39.7721 4.89966C39.7645 4.87285 39.7511 4.84801 39.7329 4.82685C39.7147 4.8057 39.6922 4.78872 39.6669 4.7771C39.6415 4.76547 39.614 4.75947 39.5861 4.7595V4.7595ZM38.0411 6.91674C37.9348 7.54997 37.4315 7.97505 36.7905 7.97505C36.4693 7.97505 36.2114 7.87183 36.0463 7.67621C35.8825 7.48194 35.8209 7.20543 35.8723 6.89745C35.9728 6.26963 36.4832 5.83067 37.1144 5.83067C37.4292 5.83067 37.685 5.93525 37.8536 6.13256C38.0231 6.33191 38.0901 6.61011 38.0411 6.91674V6.91674ZM40.8928 2.78129L39.9428 8.82522C39.9384 8.85272 39.9401 8.88083 39.9477 8.90762C39.9552 8.93441 39.9685 8.95925 39.9866 8.98041C40.0046 9.00158 40.0271 9.01858 40.0524 9.03023C40.0777 9.04188 40.1052 9.04792 40.133 9.04792H41.0881C41.2468 9.04792 41.3815 8.93285 41.4059 8.77615L42.3427 2.8412C42.347 2.81369 42.3454 2.78556 42.3378 2.75875C42.3303 2.73194 42.317 2.70709 42.2989 2.6859C42.2809 2.66471 42.2584 2.64768 42.2331 2.63599C42.2079 2.62429 42.1803 2.61821 42.1525 2.61816H41.083C41.0371 2.61833 40.9927 2.63483 40.9579 2.66472C40.923 2.69462 40.9 2.73594 40.8928 2.78129V2.78129Z" fill="#179BD7"/>
<path d="M2.977 10.2006L3.154 9.07629L2.75972 9.06715H0.876953L2.18538 0.77088C2.18927 0.745531 2.20215 0.722426 2.22165 0.705777C2.24116 0.689127 2.266 0.680042 2.29165 0.680177H5.46625C6.52016 0.680177 7.24748 0.899489 7.62721 1.33236C7.80524 1.53542 7.91861 1.74763 7.97344 1.98116C8.03098 2.22619 8.03199 2.51894 7.97581 2.876L7.97175 2.90206V3.13085L8.14977 3.2317C8.28567 3.30056 8.40783 3.3937 8.51021 3.50652C8.66251 3.68014 8.761 3.90081 8.80263 4.16243C8.84561 4.43149 8.8314 4.75166 8.761 5.11413C8.67977 5.53109 8.54846 5.89424 8.37111 6.1914C8.21464 6.4576 8.00425 6.68816 7.75345 6.86828C7.5179 7.03547 7.238 7.16239 6.92156 7.24362C6.61493 7.32349 6.26532 7.36376 5.88186 7.36376H5.6348C5.45813 7.36376 5.28654 7.42739 5.15184 7.54145C5.01733 7.65672 4.9281 7.81599 4.90003 7.9909L4.88142 8.0921L4.5687 10.0737L4.55448 10.1464C4.55076 10.1695 4.54433 10.181 4.53485 10.1888C4.52567 10.1963 4.51422 10.2004 4.50236 10.2006H2.977Z" fill="#253B80"/>
<path d="M8.31835 2.92871C8.30887 2.98929 8.29804 3.05123 8.28586 3.11486C7.8672 5.26431 6.43491 6.00686 4.60562 6.00686H3.67422C3.45051 6.00686 3.262 6.16931 3.22714 6.38998L2.75027 9.41431L2.61523 10.2716C2.60985 10.3056 2.61191 10.3404 2.62125 10.3735C2.6306 10.4066 2.64701 10.4373 2.66937 10.4635C2.69172 10.4897 2.71949 10.5107 2.75075 10.5252C2.78201 10.5396 2.81602 10.5471 2.85045 10.5471H4.50239C4.69801 10.5471 4.86419 10.4049 4.89499 10.212L4.91123 10.1281L5.22226 8.15428L5.24223 8.04598C5.27269 7.85239 5.43921 7.71024 5.63483 7.71024H5.88189C7.48239 7.71024 8.73531 7.06043 9.10151 5.18004C9.25448 4.39451 9.17529 3.73861 8.77051 3.27731C8.64221 3.13461 8.48899 3.01648 8.31835 2.92871V2.92871Z" fill="#179BD7"/>
<path d="M7.8808 2.75391C7.74713 2.71524 7.61114 2.68505 7.47365 2.66354C7.20199 2.62179 6.92743 2.60176 6.65259 2.60364H4.16435C4.06966 2.60356 3.97806 2.63737 3.90612 2.69895C3.83418 2.76052 3.78664 2.8458 3.7721 2.93937L3.24277 6.292L3.22754 6.38981C3.24403 6.28308 3.29817 6.18578 3.38018 6.11551C3.46218 6.04524 3.56663 6.00663 3.67462 6.00669H4.60602C6.43531 6.00669 7.8676 5.2638 8.28626 3.11469C8.29878 3.05106 8.30927 2.98912 8.31875 2.92854C8.20828 2.87061 8.09314 2.82204 7.97455 2.78335C7.94346 2.77303 7.91221 2.76322 7.8808 2.75391V2.75391Z" fill="#222D65"/>
<path d="M3.77232 2.93966C3.78674 2.84606 3.83426 2.76074 3.90623 2.6992C3.97821 2.63766 4.06988 2.60397 4.16458 2.60427H6.65282C6.9476 2.60427 7.22276 2.62356 7.47388 2.66417C7.64382 2.69088 7.81141 2.73082 7.97512 2.78364C8.09865 2.82459 8.21338 2.87299 8.31931 2.92883C8.44386 2.13451 8.3183 1.59367 7.88881 1.10394C7.41533 0.564803 6.56076 0.333984 5.46725 0.333984H2.29265C2.06927 0.333984 1.87873 0.496437 1.84421 0.717441L0.521909 9.099C0.51575 9.13791 0.518093 9.1777 0.528777 9.21562C0.539462 9.25354 0.558234 9.2887 0.583802 9.31868C0.609371 9.34865 0.641129 9.37273 0.676891 9.38926C0.712654 9.40579 0.751573 9.41438 0.790971 9.41443H2.7509L3.243 6.29229L3.77232 2.93966Z" fill="#253B80"/>
</svg>
