<svg width="129" height="14" viewBox="0 0 129 14" fill="none" xmlns="http://www.w3.org/2000/svg">
<path d="M38.9644 10.2006H40.9228L42.1469 2.47208H40.1884L38.9644 10.2006Z" fill="#4B84B5"/>
<path d="M35.4499 7.78784L37.3169 2.47208H39.4246L36.3089 10.2008H34.2685L32.567 3.48632C31.4624 2.80472 30.5186 2.60295 30.5186 2.60295L30.5186 2.60275C30.5186 2.60274 30.5186 2.60274 30.5186 2.60274L30.5548 2.47188H33.6413C34.4906 2.47188 34.5703 3.16774 34.5703 3.16774L35.2292 6.64336C35.2292 6.64336 35.2292 6.64326 35.2291 6.64305L35.2292 6.64357L35.229 6.64315L35.4499 7.78784Z" fill="#4B84B5"/>
<path fill-rule="evenodd" clip-rule="evenodd" d="M54.5186 10.2006H52.7204L52.491 9.05264H50.0015L49.5932 10.2006H47.5518L50.4725 3.04784C50.4725 3.04784 50.6495 2.47188 51.3765 2.47188H52.9507L54.5186 10.2006ZM51.5944 4.57457L50.5654 7.46678H52.1733L51.5944 4.57457Z" fill="#4B84B5"/>
<path d="M47.9844 2.67096L47.7049 4.33062C46.8668 3.85617 44.9596 3.74391 44.9594 4.61778C44.9594 4.96494 45.3909 5.20369 45.9111 5.49145C46.6999 5.92787 47.6924 6.47702 47.6924 7.68799C47.6924 9.62302 45.6763 10.334 44.3399 10.334C43.0039 10.334 42.1294 9.89757 42.1294 9.89757L42.4206 8.16224C43.2224 8.82358 45.652 9.0115 45.652 7.96274C45.652 7.52204 45.1737 7.26215 44.6191 6.96078C43.8538 6.54496 42.9433 6.05017 42.9433 4.89253C42.9433 2.7704 45.2512 2.33398 46.223 2.33398C47.122 2.33398 47.9844 2.67096 47.9844 2.67096Z" fill="#4B84B5"/>
<path d="M116.345 1.33398H128.94V10.773H116.345V1.33398Z" fill="#016FD0"/>
<path d="M118.79 8.53262V6.5551H120.884L121.108 6.84796L121.34 6.5551H128.94V8.39626C128.94 8.39626 128.742 8.53065 128.512 8.53264H124.304L124.05 8.2209V8.53264H123.22V8.00051C123.22 8.00051 123.107 8.07478 122.862 8.07478H122.579V8.53264H121.323L121.098 8.2335L120.871 8.53264L118.79 8.53262ZM116.345 5.06466L116.817 3.96387H117.633L117.901 4.58049V3.96387H118.916L119.076 4.40954L119.231 3.96387H123.787V4.18792C123.787 4.18792 124.027 3.96387 124.42 3.96387L125.899 3.96904L126.162 4.57758V3.96387H127.012L127.245 4.31342V3.96387H128.103V5.9414H127.245L127.021 5.59069V5.94138H125.773L125.648 5.62966H125.312L125.189 5.94138H124.342C124.004 5.94138 123.787 5.72191 123.787 5.72191V5.94138H122.511L122.258 5.62967V5.9414H117.512L117.387 5.62967H117.053L116.928 5.94138H116.345V5.06466Z" fill="white"/>
<path d="M116.984 4.20777L116.347 5.68847H116.761L116.879 5.39197H117.562L117.679 5.68847H118.103L117.466 4.20777H116.984ZM117.219 4.55237L117.427 5.07051H117.01L117.219 4.55237ZM118.146 5.68822V4.20752L118.736 4.2097L119.078 5.16438L119.413 4.20752H119.997V5.68822H119.627V4.59718L119.235 5.68822H118.91L118.517 4.59718V5.68822H118.146ZM120.251 5.68822V4.20752H121.459V4.53873H120.625V4.792H121.439V5.10374H120.625V5.36676H121.459V5.68822H120.251ZM121.673 4.20777V5.68847H122.043V5.16243H122.199L122.643 5.68847H123.095L122.608 5.14295C122.808 5.12608 123.014 4.95451 123.014 4.68814C123.014 4.37656 122.77 4.20777 122.497 4.20777H121.673ZM122.043 4.53898H122.466C122.568 4.53898 122.641 4.61838 122.641 4.69484C122.641 4.7932 122.546 4.85071 122.472 4.85071H122.043V4.53898ZM123.543 5.68822H123.165V4.20752H123.543V5.68822ZM124.439 5.68822H124.358C123.963 5.68822 123.723 5.37722 123.723 4.95396C123.723 4.52023 123.96 4.20752 124.459 4.20752H124.868V4.55821H124.444C124.242 4.55821 124.098 4.71614 124.098 4.95761C124.098 5.24437 124.262 5.3648 124.498 5.3648H124.595L124.439 5.68822ZM125.245 4.20777L124.608 5.68847H125.023L125.14 5.39197H125.823L125.94 5.68847H126.364L125.728 4.20777H125.245ZM125.481 4.55237L125.689 5.07051H125.272L125.481 4.55237ZM126.407 5.68822V4.20752H126.878L127.479 5.13783V4.20752H127.849V5.68822H127.394L126.777 4.73356V5.68822H126.407ZM119.043 8.27945V6.79875H120.251V7.12996H119.417V7.38324H120.231V7.69497H119.417V7.95799H120.251V8.27945H119.043ZM124.962 8.27945V6.79875H126.169V7.12996H125.336V7.38324H126.146V7.69497H125.336V7.95799H126.169V8.27945H124.962ZM120.297 8.27945L120.886 7.54824L120.283 6.79875H120.75L121.108 7.26207L121.468 6.79875H121.916L121.322 7.5391L121.911 8.27945H121.445L121.097 7.82344L120.757 8.27945H120.297ZM121.955 6.799V8.2797H122.335V7.81212H122.725C123.055 7.81212 123.305 7.6372 123.305 7.29704C123.305 7.01524 123.109 6.799 122.773 6.799H121.955ZM122.335 7.13387H122.746C122.852 7.13387 122.928 7.19915 122.928 7.30434C122.928 7.40316 122.853 7.47482 122.744 7.47482H122.335V7.13387ZM123.465 6.79875V8.27945H123.835V7.75341H123.991L124.435 8.27945H124.888L124.4 7.73394C124.6 7.71707 124.807 7.54549 124.807 7.27912C124.807 6.96754 124.562 6.79875 124.289 6.79875H123.465ZM123.835 7.12996H124.259C124.36 7.12996 124.434 7.20936 124.434 7.28583C124.434 7.38419 124.338 7.44168 124.264 7.44168H123.835V7.12996ZM126.341 8.27945V7.95799H127.082C127.191 7.95799 127.239 7.89875 127.239 7.83378C127.239 7.77153 127.192 7.70861 127.082 7.70861H126.747C126.456 7.70861 126.294 7.53132 126.294 7.26513C126.294 7.0277 126.442 6.79875 126.875 6.79875H127.596L127.44 7.13192H126.816C126.697 7.13192 126.66 7.19444 126.66 7.25417C126.66 7.31554 126.706 7.38324 126.797 7.38324H127.148C127.472 7.38324 127.613 7.56725 127.613 7.80821C127.613 8.06728 127.456 8.27945 127.13 8.27945H126.341ZM127.7 8.27945V7.95799H128.44C128.55 7.95799 128.597 7.89875 128.597 7.83378C128.597 7.77153 128.55 7.70861 128.44 7.70861H128.106C127.815 7.70861 127.653 7.53132 127.653 7.26513C127.653 7.0277 127.801 6.79875 128.233 6.79875H128.954L128.798 7.13192H128.175C128.056 7.13192 128.019 7.19444 128.019 7.25417C128.019 7.31554 128.064 7.38324 128.155 7.38324H128.506C128.831 7.38324 128.971 7.56725 128.971 7.80821C128.971 8.06728 128.814 8.27945 128.489 8.27945H127.7Z" fill="#016FD0"/>
<path d="M80.1577 3.61816H77.8431C77.7664 3.61812 77.6923 3.64544 77.6341 3.6952C77.5758 3.74497 77.5372 3.81391 77.5253 3.8896L76.5891 9.82488C76.5848 9.85243 76.5865 9.88057 76.5942 9.90739C76.6018 9.9342 76.6151 9.95905 76.6333 9.98021C76.6514 10.0014 76.6739 10.0184 76.6993 10.03C76.7246 10.0416 76.7521 10.0476 76.78 10.0476H77.885C77.9617 10.0476 78.0359 10.0202 78.0942 9.97042C78.1524 9.92058 78.191 9.85156 78.2028 9.77581L78.4553 8.17497C78.4672 8.09928 78.5057 8.0303 78.5639 7.98048C78.6221 7.93065 78.6962 7.90325 78.7728 7.9032H79.5055C81.0302 7.9032 81.9101 7.16539 82.14 5.70332C82.2435 5.06366 82.1444 4.56107 81.8448 4.20909C81.5159 3.82258 80.9324 3.61816 80.1577 3.61816ZM80.4247 5.7859C80.2981 6.61644 79.6636 6.61644 79.05 6.61644H78.7007L78.9457 5.06535C78.9529 5.01997 78.976 4.97864 79.011 4.9488C79.0459 4.91896 79.0903 4.90256 79.1363 4.90256H79.2963C79.7143 4.90256 80.1086 4.90256 80.3124 5.14082C80.4339 5.28297 80.4711 5.49416 80.4247 5.7859ZM87.0765 5.75916H85.9681C85.9221 5.75916 85.8777 5.77556 85.8428 5.8054C85.8079 5.83524 85.7847 5.87657 85.7775 5.92195L85.7285 6.23197L85.651 6.1196C85.411 5.77134 84.8759 5.65492 84.3419 5.65492C83.117 5.65492 82.0709 6.58259 81.8672 7.88391C81.7612 8.53305 81.9118 9.15375 82.2801 9.58662C82.6178 9.98463 83.1011 10.1505 83.6761 10.1505C84.663 10.1505 85.2103 9.51588 85.2103 9.51588L85.1609 9.82387C85.1565 9.8514 85.1581 9.87957 85.1656 9.90642C85.1732 9.93327 85.1864 9.95817 85.2045 9.9794C85.2226 10.0006 85.2451 10.0177 85.2704 10.0294C85.2957 10.0411 85.3232 10.0472 85.3511 10.0472H86.3495C86.4262 10.0473 86.5004 10.0199 86.5586 9.97008C86.6169 9.92024 86.6554 9.85122 86.6673 9.77547L87.2664 5.98186C87.2708 5.95438 87.2692 5.92628 87.2616 5.89948C87.2541 5.87269 87.2409 5.84785 87.2228 5.82667C87.2048 5.8055 87.1823 5.7885 87.1571 5.77684C87.1318 5.76518 87.1043 5.75915 87.0765 5.75916ZM85.5315 7.9164C85.4245 8.54963 84.922 8.97471 84.2809 8.97471C83.9591 8.97471 83.7019 8.87149 83.5367 8.67587C83.3729 8.4816 83.3106 8.20509 83.3627 7.89711C83.4626 7.2693 83.9736 6.83033 84.6048 6.83033C84.9196 6.83033 85.1755 6.93491 85.344 7.13223C85.5129 7.33157 85.5799 7.60977 85.5315 7.9164ZM92.9796 5.75916H91.8658C91.8133 5.75924 91.7616 5.77214 91.7151 5.79673C91.6687 5.82133 91.629 5.85687 91.5995 5.90029L90.0633 8.16313L89.4121 5.98862C89.3921 5.9223 89.3513 5.86418 89.2957 5.82285C89.2401 5.78153 89.1727 5.75919 89.1034 5.75916H88.0089C87.9782 5.75908 87.9479 5.76634 87.9205 5.78033C87.8932 5.79432 87.8696 5.81465 87.8517 5.83961C87.8337 5.86457 87.822 5.89345 87.8176 5.92385C87.8131 5.95424 87.8159 5.98527 87.8258 6.01435L89.0527 9.61471L87.8992 11.243C87.8787 11.2718 87.8666 11.3058 87.8641 11.3411C87.8616 11.3764 87.8689 11.4117 87.8852 11.4432C87.9014 11.4747 87.926 11.501 87.9562 11.5194C87.9865 11.5378 88.0212 11.5476 88.0566 11.5476H89.1691C89.221 11.5476 89.2722 11.5351 89.3182 11.5111C89.3643 11.487 89.4038 11.4522 89.4334 11.4095L93.138 6.06207C93.1581 6.03314 93.1699 5.99926 93.1721 5.96411C93.1743 5.92897 93.1668 5.89389 93.1505 5.86268C93.1342 5.83147 93.1096 5.80533 93.0795 5.78708C93.0494 5.76883 93.0148 5.75918 92.9796 5.75916Z" fill="#253B80"/>
<path d="M96.6676 3.6185H94.3526C94.2761 3.61853 94.202 3.64589 94.1438 3.69565C94.0856 3.74541 94.0471 3.8143 94.0352 3.88993L93.099 9.82522C93.0947 9.85272 93.0964 9.88083 93.1039 9.90762C93.1115 9.93441 93.1247 9.95925 93.1428 9.98041C93.1609 10.0016 93.1834 10.0186 93.2086 10.0302C93.2339 10.0419 93.2614 10.0479 93.2893 10.0479H94.4772C94.5308 10.0478 94.5826 10.0286 94.6233 9.99377C94.664 9.95891 94.6909 9.91066 94.6992 9.85771L94.9649 8.17531C94.9767 8.09961 95.0152 8.03064 95.0734 7.98081C95.1317 7.93099 95.2057 7.90358 95.2824 7.90354H96.0147C97.5398 7.90354 98.4194 7.16573 98.6495 5.70365C98.7534 5.064 98.6536 4.56141 98.3541 4.20943C98.0254 3.82292 97.4423 3.6185 96.6676 3.6185ZM96.9346 5.78623C96.8084 6.61678 96.1738 6.61678 95.5599 6.61678H95.2109L95.4563 5.06569C95.4633 5.02031 95.4864 4.97894 95.5213 4.94908C95.5562 4.91922 95.6006 4.90284 95.6465 4.9029H95.8066C96.2242 4.9029 96.6189 4.9029 96.8226 5.14116C96.9441 5.28331 96.981 5.4945 96.9346 5.78623ZM103.586 5.7595H102.478C102.432 5.75937 102.388 5.77573 102.353 5.8056C102.318 5.83548 102.295 5.87688 102.288 5.92229L102.239 6.2323L102.161 6.11994C101.921 5.77168 101.387 5.65526 100.852 5.65526C99.6276 5.65526 98.5818 6.58293 98.3781 7.88425C98.2725 8.53338 98.4224 9.15409 98.7907 9.58696C99.1291 9.98497 99.6117 10.1508 100.187 10.1508C101.174 10.1508 101.721 9.51622 101.721 9.51622L101.671 9.82421C101.667 9.8518 101.669 9.88002 101.676 9.90692C101.684 9.93382 101.697 9.95875 101.715 9.97999C101.733 10.0012 101.756 10.0183 101.781 10.03C101.807 10.0416 101.834 10.0476 101.862 10.0476H102.86C102.937 10.0475 103.011 10.0201 103.069 9.9703C103.128 9.92048 103.166 9.8515 103.178 9.77581L103.777 5.98219C103.782 5.95463 103.78 5.92648 103.772 5.89966C103.764 5.87285 103.751 5.84801 103.733 5.82685C103.715 5.8057 103.692 5.78872 103.667 5.7771C103.642 5.76547 103.614 5.75946 103.586 5.7595ZM102.041 7.91674C101.935 8.54997 101.432 8.97505 100.791 8.97505C100.469 8.97505 100.211 8.87183 100.046 8.67621C99.8825 8.48194 99.8209 8.20543 99.8723 7.89745C99.9728 7.26963 100.483 6.83067 101.114 6.83067C101.429 6.83067 101.685 6.93525 101.854 7.13256C102.023 7.33191 102.09 7.61011 102.041 7.91674ZM104.893 3.78129L103.943 9.82522C103.938 9.85272 103.94 9.88083 103.948 9.90762C103.955 9.93441 103.968 9.95925 103.987 9.98041C104.005 10.0016 104.027 10.0186 104.052 10.0302C104.078 10.0419 104.105 10.0479 104.133 10.0479H105.088C105.247 10.0479 105.382 9.93285 105.406 9.77615L106.343 3.8412C106.347 3.81369 106.345 3.78556 106.338 3.75875C106.33 3.73194 106.317 3.70709 106.299 3.6859C106.281 3.66471 106.258 3.64768 106.233 3.63599C106.208 3.62429 106.18 3.61821 106.152 3.61816H105.083C105.037 3.61833 104.993 3.63483 104.958 3.66472C104.923 3.69462 104.9 3.73594 104.893 3.78129Z" fill="#179BD7"/>
<path d="M66.977 11.2006L67.154 10.0763L66.7597 10.0672H64.877L66.1854 1.77088C66.1893 1.74553 66.2021 1.72243 66.2217 1.70578C66.2412 1.68913 66.266 1.68004 66.2916 1.68018H69.4663C70.5202 1.68018 71.2475 1.89949 71.6272 2.33236C71.8052 2.53542 71.9186 2.74763 71.9734 2.98116C72.031 3.22619 72.032 3.51894 71.9758 3.876L71.9717 3.90206V4.13085L72.1498 4.2317C72.2857 4.30056 72.4078 4.3937 72.5102 4.50652C72.6625 4.68014 72.761 4.90081 72.8026 5.16243C72.8456 5.43149 72.8314 5.75166 72.761 6.11413C72.6798 6.53109 72.5485 6.89424 72.3711 7.1914C72.2146 7.4576 72.0043 7.68816 71.7535 7.86828C71.5179 8.03547 71.238 8.16239 70.9216 8.24362C70.6149 8.32349 70.2653 8.36376 69.8819 8.36376H69.6348C69.4581 8.36376 69.2865 8.42739 69.1518 8.54145C69.0173 8.65672 68.9281 8.81599 68.9 8.9909L68.8814 9.0921L68.5687 11.0737L68.5545 11.1464C68.5508 11.1695 68.5443 11.181 68.5349 11.1888C68.5257 11.1963 68.5142 11.2004 68.5024 11.2006H66.977Z" fill="#253B80"/>
<path d="M72.3183 3.92871C72.3089 3.98929 72.298 4.05123 72.2859 4.11486C71.8672 6.26431 70.4349 7.00686 68.6056 7.00686H67.6742C67.4505 7.00686 67.262 7.16931 67.2271 7.38998L66.7503 10.4143L66.6152 11.2716C66.6099 11.3056 66.6119 11.3404 66.6213 11.3735C66.6306 11.4066 66.647 11.4373 66.6694 11.4635C66.6917 11.4897 66.7195 11.5107 66.7507 11.5252C66.782 11.5396 66.816 11.5471 66.8504 11.5471H68.5024C68.698 11.5471 68.8642 11.4049 68.895 11.212L68.9112 11.1281L69.2223 9.15428L69.2422 9.04598C69.2727 8.85239 69.4392 8.71024 69.6348 8.71024H69.8819C71.4824 8.71024 72.7353 8.06043 73.1015 6.18004C73.2545 5.39451 73.1753 4.73861 72.7705 4.27731C72.6422 4.13461 72.489 4.01648 72.3183 3.92871Z" fill="#179BD7"/>
<path d="M71.8808 3.75391C71.7471 3.71524 71.6111 3.68505 71.4737 3.66354C71.202 3.62179 70.9274 3.60176 70.6526 3.60364H68.1644C68.0697 3.60356 67.9781 3.63737 67.9061 3.69895C67.8342 3.76052 67.7866 3.8458 67.7721 3.93937L67.2428 7.292L67.2275 7.38981C67.244 7.28308 67.2982 7.18578 67.3802 7.11551C67.4622 7.04524 67.5666 7.00663 67.6746 7.00669H68.606C70.4353 7.00669 71.8676 6.2638 72.2863 4.11469C72.2988 4.05106 72.3093 3.98912 72.3187 3.92854C72.2083 3.87061 72.0931 3.82204 71.9746 3.78335C71.9435 3.77303 71.9122 3.76322 71.8808 3.75391Z" fill="#222D65"/>
<path d="M67.7723 3.93966C67.7867 3.84607 67.8343 3.76074 67.9062 3.6992C67.9782 3.63766 68.0699 3.60397 68.1646 3.60427H70.6528C70.9476 3.60427 71.2228 3.62356 71.4739 3.66417C71.6438 3.69088 71.8114 3.73082 71.9751 3.78364C72.0986 3.82459 72.2134 3.87299 72.3193 3.92883C72.4439 3.13451 72.3183 2.59367 71.8888 2.10394C71.4153 1.5648 70.5608 1.33398 69.4672 1.33398H66.2926C66.0693 1.33398 65.8787 1.49644 65.8442 1.71744L64.5219 10.099C64.5157 10.1379 64.5181 10.1777 64.5288 10.2156C64.5395 10.2535 64.5582 10.2887 64.5838 10.3187C64.6094 10.3486 64.6411 10.3727 64.6769 10.3893C64.7127 10.4058 64.7516 10.4144 64.791 10.4144H66.7509L67.243 7.29229L67.7723 3.93966Z" fill="#253B80"/>
<path d="M20.519 6.69142C20.519 10.2026 17.6781 13.0489 14.1736 13.0489C10.6691 13.0489 7.82812 10.2026 7.82812 6.69142C7.82812 3.18031 10.6691 0.333984 14.1736 0.333984C17.6781 0.333984 20.519 3.18031 20.519 6.69142Z" fill="#F79F1A"/>
<path d="M12.6909 6.69142C12.6909 10.2026 9.84998 13.0489 6.34542 13.0489C2.84094 13.0489 0 10.2026 0 6.69142C0 3.18031 2.84094 0.333984 6.34542 0.333984C9.84998 0.333984 12.6909 3.18031 12.6909 6.69142Z" fill="#EA001B"/>
<path d="M10.26 1.68652C8.77947 2.85036 7.8291 4.65894 7.8291 6.69062C7.8291 8.72223 8.77947 10.5322 10.26 11.696C11.7405 10.5322 12.691 8.72223 12.691 6.69062C12.691 4.65894 11.7405 2.85036 10.26 1.68652Z" fill="#FF5F01"/>
</svg>
