<svg width="13" height="10" viewBox="0 0 13 10" fill="none" xmlns="http://www.w3.org/2000/svg">
<path d="M0.344727 0.333984H12.9405V9.77296H0.344727V0.333984Z" fill="#016FD0"/>
<path d="M2.78984 7.53262V5.5551H4.88366L5.10831 5.84796L5.34039 5.5551H12.9405V7.39626C12.9405 7.39626 12.7417 7.53065 12.5118 7.53264H8.30352L8.05024 7.2209V7.53264H7.22026V7.00051C7.22026 7.00051 7.10689 7.07478 6.86178 7.07478H6.57927V7.53264H5.32263L5.09829 7.2335L4.87053 7.53264L2.78984 7.53262ZM0.344727 4.06466L0.816891 2.96387H1.63346L1.90141 3.58049V2.96387H2.91647L3.07599 3.40954L3.23063 2.96387H7.78722V3.18792C7.78722 3.18792 8.02676 2.96387 8.42042 2.96387L9.89886 2.96904L10.1622 3.57758V2.96387H11.0116L11.2454 3.31342V2.96387H12.1027V4.9414H11.2454L11.0214 4.59069V4.94138H9.77335L9.64783 4.62966H9.31233L9.18885 4.94138H8.34248C8.00375 4.94138 7.78722 4.72191 7.78722 4.72191V4.94138H6.51108L6.2578 4.62967V4.9414H1.51249L1.38707 4.62967H1.0526L0.928098 4.94138H0.344727V4.06466Z" fill="white"/>
<path d="M0.983527 3.20777L0.34668 4.68847H0.761303L0.87881 4.39197H1.56194L1.67882 4.68847H2.10259L1.46632 3.20777H0.983527ZM1.21915 3.55237L1.42737 4.07051H1.01032L1.21915 3.55237ZM2.14642 4.68822V3.20752L2.73561 3.2097L3.07831 4.16438L3.4128 3.20752H3.9973V4.68822H3.62712V3.59718L3.23472 4.68822H2.91008L2.51659 3.59718V4.68822H2.14642ZM4.25057 4.68822V3.20752H5.45852V3.53873H4.62465V3.792H5.43903V4.10374H4.62465V4.36676H5.45852V4.68822H4.25057ZM5.67284 3.20777V4.68847H6.04301V4.16243H6.19887L6.64271 4.68847H7.09509L6.60801 4.14295C6.80791 4.12608 7.01411 3.95451 7.01411 3.68814C7.01411 3.37656 6.76955 3.20777 6.4966 3.20777H5.67284ZM6.04301 3.53898H6.46614C6.56767 3.53898 6.6415 3.61838 6.6415 3.69484C6.6415 3.7932 6.54582 3.85071 6.47164 3.85071H6.04301V3.53898ZM7.5432 4.68822H7.16523V3.20752H7.5432V4.68822ZM8.4394 4.68822H8.35783C7.96309 4.68822 7.72341 4.37722 7.72341 3.95396C7.72341 3.52023 7.9604 3.20752 8.45889 3.20752H8.86803V3.55821H8.44394C8.24158 3.55821 8.09846 3.71614 8.09846 3.95761C8.09846 4.24437 8.26211 4.3648 8.49786 4.3648H8.59527L8.4394 4.68822ZM9.24491 3.20777L8.60807 4.68847H9.02269L9.14018 4.39197H9.82331L9.94021 4.68847H10.364L9.72772 3.20777H9.24491ZM9.48053 3.55237L9.68875 4.07051H9.27169L9.48053 3.55237ZM10.4072 4.68822V3.20752H10.8778L11.4787 4.13783V3.20752H11.8489V4.68822H11.3935L10.7774 3.73356V4.68822H10.4072ZM3.04264 7.27945V5.79875H4.25057V6.12996H3.4167V6.38324H4.23109V6.69497H3.4167V6.95799H4.25057V7.27945H3.04264ZM8.96156 7.27945V5.79875H10.1695V6.12996H9.33562V6.38324H10.1461V6.69497H9.33561V6.95799H10.1695V7.27945H8.96156ZM4.29746 7.27945L4.8856 6.54824L4.28345 5.79875H4.74983L5.10844 6.26207L5.46828 5.79875H5.91639L5.32216 6.5391L5.91137 7.27945H5.44508L5.09688 6.82344L4.75714 7.27945H4.29746ZM5.95534 5.799V7.2797H6.33525V6.81212H6.72491C7.05462 6.81212 7.30453 6.6372 7.30453 6.29704C7.30453 6.01524 7.10852 5.799 6.77301 5.799H5.95534ZM6.33525 6.13387H6.74561C6.85213 6.13387 6.92826 6.19915 6.92826 6.30434C6.92826 6.40316 6.85251 6.47482 6.7444 6.47482H6.33525V6.13387ZM7.46526 5.79875V7.27945H7.83544V6.75341H7.99131L8.43515 7.27945H8.88751L8.40045 6.73394C8.60034 6.71707 8.80654 6.54549 8.80654 6.27912C8.80654 5.96754 8.56198 5.79875 8.28903 5.79875H7.46526ZM7.83544 6.12996H8.25859C8.36009 6.12996 8.43394 6.20936 8.43394 6.28583C8.43394 6.38419 8.33826 6.44168 8.26406 6.44168H7.83544V6.12996ZM10.3409 7.27945V6.95799H11.0818C11.1914 6.95799 11.2389 6.89875 11.2389 6.83378C11.2389 6.77153 11.1916 6.70861 11.0818 6.70861H10.747C10.456 6.70861 10.2939 6.53132 10.2939 6.26513C10.2939 6.0277 10.4424 5.79875 10.8748 5.79875H11.5956L11.4398 6.13192H10.8163C10.6972 6.13192 10.6605 6.19444 10.6605 6.25417C10.6605 6.31554 10.7058 6.38324 10.7968 6.38324H11.1475C11.4719 6.38324 11.6127 6.56725 11.6127 6.80821C11.6127 7.06728 11.4558 7.27945 11.1299 7.27945H10.3409ZM11.6996 7.27945V6.95799H12.4404C12.55 6.95799 12.5975 6.89875 12.5975 6.83378C12.5975 6.77153 12.5502 6.70861 12.4404 6.70861H12.1056C11.8146 6.70861 11.6526 6.53132 11.6526 6.26513C11.6526 6.0277 11.801 5.79875 12.2334 5.79875H12.9543L12.7984 6.13192H12.175C12.0558 6.13192 12.0191 6.19444 12.0191 6.25417C12.0191 6.31554 12.0644 6.38324 12.1555 6.38324H12.5062C12.8306 6.38324 12.9713 6.56725 12.9713 6.80821C12.9713 7.06728 12.8145 7.27945 12.4885 7.27945H11.6996Z" fill="#016FD0"/>
</svg>
