<svg width="21" height="14" viewBox="0 0 21 14" fill="none" xmlns="http://www.w3.org/2000/svg">
<path d="M20.519 6.69142C20.519 10.2026 17.6781 13.0489 14.1736 13.0489C10.6691 13.0489 7.82812 10.2026 7.82812 6.69142C7.82812 3.18031 10.6691 0.333984 14.1736 0.333984C17.6781 0.333984 20.519 3.18031 20.519 6.69142Z" fill="#F79F1A"/>
<path d="M12.6909 6.69142C12.6909 10.2026 9.84998 13.0489 6.34542 13.0489C2.84094 13.0489 0 10.2026 0 6.69142C0 3.18031 2.84094 0.333984 6.34542 0.333984C9.84998 0.333984 12.6909 3.18031 12.6909 6.69142Z" fill="#EA001B"/>
<path d="M10.26 1.68652C8.77947 2.85036 7.8291 4.65894 7.8291 6.69062C7.8291 8.72223 8.77947 10.5322 10.26 11.696C11.7405 10.5322 12.691 8.72223 12.691 6.69062C12.691 4.65894 11.7405 2.85036 10.26 1.68652Z" fill="#FF5F01"/>
</svg>
