<svg width="157" height="43" viewBox="0 0 157 43" fill="none" xmlns="http://www.w3.org/2000/svg">
<path d="M156 43V13.4497C151.497 18.8438 139.647 28.7877 128.271 25.4106C114.05 21.1891 89.5256 -9.87697 77.078 5.00676C60.0138 25.4106 50.7706 9.22827 41.5275 7.11752C32.2844 5.00676 30.8624 26.1142 25.1743 27.5213C19.4862 28.9285 14.5092 16.264 1 16.264V43H156Z" fill="url(#paint0_linear_0_64)"/>
<path d="M1 16.4758C14.5092 16.4758 19.4862 29.3161 25.1743 27.8894C30.8624 26.4627 32.2844 5.06236 41.5275 7.20241C50.7706 9.34246 60.0138 25.7493 77.078 5.06236C89.5256 -10.0279 114.05 21.4693 128.271 25.7493C139.647 29.1734 151.497 19.0914 156 13.6225" stroke="#FE5A50" stroke-width="2" stroke-linecap="round"/>
<defs>
<linearGradient id="paint0_linear_0_64" x1="78.5" y1="1.00003" x2="78.5" y2="43" gradientUnits="userSpaceOnUse">
<stop stop-color="#FE5A50"/>
<stop offset="1" stop-color="#FE5A50" stop-opacity="0"/>
</linearGradient>
</defs>
</svg>
