<svg width="77" height="76" viewBox="0 0 77 76" fill="none" xmlns="http://www.w3.org/2000/svg">
<path d="M75 58.5H68V74.5H75V58.5Z" stroke="#FE5A50" stroke-width="3"/>
<path d="M46 74.5V68.5C46 66.2909 44.2091 64.5 42 64.5C39.7909 64.5 38 66.2909 38 68.5V74.5H46Z" stroke="#FE5A50" stroke-width="3"/>
<path d="M64 74.5V68.5C64 66.2909 62.2091 64.5 60 64.5C57.7909 64.5 56 66.2909 56 68.5V74.5H64Z" stroke="#FE5A50" stroke-width="3"/>
<path d="M32 58.5H25V74.5H32V58.5Z" stroke="#FE5A50" stroke-width="3"/>
<path d="M68 74.5V47.5C68 37.5589 59.9411 29.5 50 29.5C40.0589 29.5 32 37.5589 32 47.5V74.5H68Z" stroke="#FE5A50" stroke-width="3"/>
<path d="M40 50.5H61V49C61 43.201 56.299 38.5 50.5 38.5C44.701 38.5 40 43.201 40 49V50.5Z" stroke="#FE5A50" stroke-width="3"/>
<path d="M45 57H55" stroke="#FE5A50" stroke-width="3"/>
<rect x="2" y="69.5" width="18" height="5" stroke="#FE5A50" stroke-width="3"/>
<rect x="5" y="65" width="12" height="5" stroke="#FE5A50" stroke-width="3"/>
<path d="M10.5 66.5V36C10.5 23.2975 20.7975 13 33.5 13H54.5C57.5376 13 60 10.5376 60 7.5V6.5C60 4.01472 57.9853 2 55.5 2V2C53.0147 2 51 4.01472 51 6.5V27M51 27H45.5V30.5M51 27H56.5V30.5" stroke="#FE5A50" stroke-width="3"/>
</svg>
