<svg width="62" height="70" viewBox="0 0 62 70" fill="none" xmlns="http://www.w3.org/2000/svg">
<path d="M35.004 1C35.504 2.83333 35.404 7.2 31.004 10C26.604 12.8 26.504 17.1667 27.004 19" stroke="#FE5A50" stroke-width="3"/>
<path d="M40.0035 8C40.5035 9.5 40.8035 12.7 38.0035 13.5C35.2035 14.3 34.8369 18.5 35.0035 20.5" stroke="#FE5A50" stroke-width="3"/>
<path d="M42.5039 35L59.686 12.8441C60.7249 11.5045 60.6051 9.60119 59.4064 8.40246V8.40246C57.9048 6.90092 55.4049 7.14846 54.227 8.91532L38.5039 32.5" stroke="#FE5A50" stroke-width="3"/>
<path d="M60.0039 40H2.00391C2.00391 55.464 14.5399 68 30.0039 68H32.0039C47.4679 68 60.0039 55.464 60.0039 40Z" stroke="#FE5A50" stroke-width="3"/>
<path d="M9.38536 33.291C4.74536 32.4653 2.53081 37.4196 2.00354 39.9999C1.47627 42.5802 60.0035 40 60.0035 40C60.0035 38.3486 57.1914 36.2155 55.7854 35.3554C55.3635 32.4654 52.7975 31.3989 51.5672 31.2269C47.7708 24.6213 40.4944 27.0983 37.3308 29.1626C32.5854 17.8092 27.0581 26.4841 26.0035 27.0001C24.949 25.4519 19.5035 23.5 17.2944 28.1304C11.4944 24.0019 8.33081 30.7108 9.38536 33.291Z" stroke="#FE5A50" stroke-width="3"/>
<circle cx="19.0039" cy="34" r="1" fill="#FE5A50"/>
<circle cx="33.5039" cy="31.5" r="1.5" fill="#FE5A50"/>
<circle cx="23.0039" cy="37" r="1" fill="#FE5A50"/>
<circle cx="33.5039" cy="38.5" r="1.5" fill="#FE5A50"/>
</svg>
