<svg width="77" height="78" viewBox="0 0 77 78" fill="none" xmlns="http://www.w3.org/2000/svg">
<path d="M2 72.4628V59.8099C2 55.3917 5.58172 51.8099 10 51.8099H21.9421C26.3604 51.8099 29.9421 55.3917 29.9421 59.8099V72.4628" stroke="#FE5A50" stroke-width="3"/>
<path d="M7.4668 62.7438V72.4628" stroke="#FE5A50" stroke-width="1.5"/>
<path d="M24.4756 62.7438V72.4628" stroke="#FE5A50" stroke-width="1.5"/>
<path d="M7.4668 42.0909C7.4668 46.7876 11.2742 50.5951 15.9709 50.5951C20.6676 50.5951 24.4751 46.7876 24.4751 42.0909C24.4751 40.0092 23.7271 38.1022 22.4852 36.624M7.4668 42.0909C7.4668 37.3942 11.2742 33.5868 15.9709 33.5868C18.5859 33.5868 20.9252 34.7671 22.4852 36.624M7.4668 42.0909C14.2701 45.4926 20.3138 39.8637 22.4852 36.624" stroke="#FE5A50" stroke-width="3"/>
<path d="M24.4751 42.0909C24.4751 46.7876 20.6676 50.5951 15.9709 50.5951C11.2742 50.5951 7.4668 46.7876 7.4668 42.0909C7.4668 37.3942 11.2742 33.5868 15.9709 33.5868C18.5859 33.5868 20.9252 34.7671 22.4852 36.624C23.7271 38.1022 24.4751 40.0092 24.4751 42.0909Z" stroke="#FE5A50" stroke-width="3"/>
<path d="M12.3262 70.6405L15.6905 74.8926L19.6154 71.0455L17.7931 56.9394L19.6154 51.8099H11.7188L14.1485 56.9394L12.3262 70.6405Z" stroke="#FE5A50" stroke-width="3"/>
<path d="M47.5576 71.2479V58.595C47.5576 54.1767 51.1393 50.595 55.5576 50.595H67.4998C71.918 50.595 75.4998 54.1767 75.4998 58.595V71.2479" stroke="#FE5A50" stroke-width="3"/>
<path d="M53.0244 61.5289V71.2479" stroke="#FE5A50" stroke-width="1.5"/>
<path d="M70.0332 61.5289V71.2479" stroke="#FE5A50" stroke-width="1.5"/>
<path d="M53.0244 40.876C53.0244 45.5727 56.8318 49.3802 61.5285 49.3802C66.2252 49.3802 70.0327 45.5727 70.0327 40.876C70.0327 38.7943 69.2847 36.8873 68.0429 35.4091M53.0244 40.876C53.0244 36.1793 56.8318 32.3719 61.5285 32.3719C64.1435 32.3719 66.4829 33.5522 68.0429 35.4091M53.0244 40.876C59.8277 44.2777 65.8714 38.6487 68.0429 35.4091" stroke="#FE5A50" stroke-width="3"/>
<path d="M70.0327 40.876C70.0327 45.5727 66.2252 49.3802 61.5285 49.3802C56.8318 49.3802 53.0244 45.5727 53.0244 40.876C53.0244 36.1793 56.8318 32.3719 61.5285 32.3719C64.1435 32.3719 66.4829 33.5522 68.0429 35.4091C69.2847 36.8873 70.0327 38.7943 70.0327 40.876Z" stroke="#FE5A50" stroke-width="3"/>
<path d="M57.8838 69.4256L61.2481 73.6776L65.1731 69.8305L63.3507 55.7244L65.1731 50.595H57.2764L59.7061 55.7244L57.8838 69.4256Z" stroke="#FE5A50" stroke-width="3"/>
<path d="M24.4756 40.876V28.2231C24.4756 23.8049 28.0573 20.2231 32.4756 20.2231H44.4177C48.836 20.2231 52.4177 23.8049 52.4177 28.2231V40.876" stroke="#FE5A50" stroke-width="3"/>
<path d="M29.9424 31.157V40.8761" stroke="#FE5A50" stroke-width="1.5"/>
<path d="M46.9512 31.157V40.8761" stroke="#FE5A50" stroke-width="1.5"/>
<path d="M29.9424 10.5041C29.9424 15.2008 33.7498 19.0083 38.4465 19.0083C43.1432 19.0083 46.9506 15.2008 46.9506 10.5041C46.9506 8.42242 46.2027 6.51541 44.9608 5.03719M29.9424 10.5041C29.9424 5.80743 33.7498 2 38.4465 2C41.0615 2 43.4008 3.18028 44.9608 5.03719M29.9424 10.5041C36.7457 13.9058 42.7894 8.27686 44.9608 5.03719" stroke="#FE5A50" stroke-width="3"/>
<path d="M46.9506 10.5041C46.9506 15.2008 43.1432 19.0083 38.4465 19.0083C33.7498 19.0083 29.9424 15.2008 29.9424 10.5041C29.9424 5.80743 33.7498 2 38.4465 2C41.0615 2 43.4008 3.18028 44.9608 5.03719C46.2027 6.51541 46.9506 8.42242 46.9506 10.5041Z" stroke="#FE5A50" stroke-width="3"/>
<path d="M34.8018 39.0537L38.166 43.3058L42.091 39.4587L40.2687 25.3526L42.091 20.2231H34.1943L36.6241 25.3526L34.8018 39.0537Z" stroke="#FE5A50" stroke-width="3"/>
<path d="M38.4464 45.7356V52.4174M38.4464 52.4174L32.9795 57.8844M38.4464 52.4174L43.9134 57.8844" stroke="#FE5A50" stroke-width="1.5"/>
</svg>
