<svg width="178" height="53" viewBox="0 0 178 53" fill="none" xmlns="http://www.w3.org/2000/svg">
<rect x="0.474609" y="0.504395" width="176.534" height="51.9912" rx="10" fill="#151D28"/>
<path d="M89.4656 28.4915C86.7906 28.4915 84.6104 30.5261 84.6104 33.3285C84.6104 36.1137 86.7906 38.1654 89.4656 38.1654C92.1416 38.1654 94.3219 36.1137 94.3219 33.3285C94.3207 30.5261 92.1405 28.4915 89.4656 28.4915ZM89.4656 36.2616C87.9996 36.2616 86.736 35.0526 86.736 33.3296C86.736 31.5884 88.0007 30.3976 89.4656 30.3976C90.9316 30.3976 92.1951 31.5884 92.1951 33.3296C92.1951 35.0515 90.9316 36.2616 89.4656 36.2616ZM78.8727 28.4915C76.1977 28.4915 74.0175 30.5261 74.0175 33.3285C74.0175 36.1137 76.1977 38.1654 78.8727 38.1654C81.5488 38.1654 83.729 36.1137 83.729 33.3285C83.729 30.5261 81.5488 28.4915 78.8727 28.4915ZM78.8727 36.2616C77.4067 36.2616 76.1431 35.0526 76.1431 33.3296C76.1431 31.5884 77.4078 30.3976 78.8727 30.3976C80.3387 30.3976 81.6022 31.5884 81.6022 33.3296C81.6034 35.0515 80.3387 36.2616 78.8727 36.2616ZM66.2736 29.9768V32.0285H71.1845C71.0378 33.1829 70.6534 34.0256 70.0665 34.6113C69.3523 35.3256 68.2343 36.1137 66.2736 36.1137C63.2506 36.1137 60.8873 33.6765 60.8873 30.6535C60.8873 27.6306 63.2506 25.1933 66.2736 25.1933C67.9045 25.1933 69.0953 25.8347 69.9744 26.6593L71.4222 25.2115C70.1939 24.0389 68.5641 23.1416 66.2736 23.1416C62.1327 23.1416 58.6514 26.5126 58.6514 30.6535C58.6514 34.7944 62.1327 38.1654 66.2736 38.1654C68.5084 38.1654 70.195 37.4319 71.5132 36.058C72.8688 34.7023 73.2908 32.7962 73.2908 31.2574C73.2908 30.782 73.2544 30.3419 73.1805 29.9757H66.2736V29.9768ZM117.803 31.5702C117.4 30.4897 116.172 28.4915 113.662 28.4915C111.17 28.4915 109.099 30.4522 109.099 33.3285C109.099 36.0398 111.152 38.1654 113.899 38.1654C116.116 38.1654 117.399 36.8098 117.931 36.0216L116.282 34.9218C115.733 35.7282 114.981 36.2593 113.899 36.2593C112.819 36.2593 112.049 35.7646 111.554 34.7933L118.022 32.1184L117.803 31.5702ZM111.206 33.1829C111.152 31.3132 112.654 30.3612 113.736 30.3612C114.578 30.3612 115.293 30.7832 115.531 31.3871L111.206 33.1829ZM105.949 37.8731H108.073V23.6557H105.949V37.8731ZM102.466 29.5731H102.393C101.917 29.0044 101 28.4915 99.8469 28.4915C97.4278 28.4915 95.2112 30.6171 95.2112 33.3478C95.2112 36.0591 97.4278 38.1666 99.8469 38.1666C101.001 38.1666 101.917 37.6536 102.393 37.0679H102.466V37.764C102.466 39.6144 101.477 40.6038 99.8833 40.6038C98.5822 40.6038 97.7759 39.6701 97.446 38.8819L95.5956 39.6519C96.1268 40.9336 97.537 42.5099 99.8833 42.5099C102.375 42.5099 104.483 41.0439 104.483 37.4705V28.7861H102.467V29.5731H102.466ZM100.03 36.2616C98.564 36.2616 97.3369 35.0333 97.3369 33.3478C97.3369 31.643 98.564 30.3976 100.03 30.3976C101.477 30.3976 102.613 31.643 102.613 33.3478C102.613 35.0333 101.477 36.2616 100.03 36.2616ZM127.759 23.6557H122.674V37.8731H124.795V32.4869H127.758C130.109 32.4869 132.423 30.7843 132.423 28.0718C132.423 25.3594 130.111 23.6557 127.759 23.6557ZM127.813 30.5079H124.795V25.6346H127.813C129.4 25.6346 130.301 26.9482 130.301 28.0718C130.301 29.1727 129.4 30.5079 127.813 30.5079ZM140.929 28.4665C139.392 28.4665 137.801 29.1432 137.143 30.6433L139.026 31.4292C139.429 30.6433 140.179 30.3862 140.965 30.3862C142.063 30.3862 143.178 31.0447 143.196 32.215V32.3617C142.812 32.1422 141.989 31.8136 140.983 31.8136C138.953 31.8136 136.886 32.9293 136.886 35.0139C136.886 36.9167 138.551 38.1415 140.416 38.1415C141.842 38.1415 142.629 37.5012 143.123 36.7506H143.195V37.8481H145.245V32.397C145.246 29.8745 143.36 28.4665 140.929 28.4665ZM140.672 36.2582C139.978 36.2582 139.008 35.9101 139.008 35.0503C139.008 33.9528 140.216 33.532 141.259 33.532C142.19 33.532 142.63 33.7333 143.196 34.0074C143.032 35.3256 141.898 36.2582 140.672 36.2582ZM152.708 28.777L150.275 34.9412H150.202L147.677 28.777H145.391L149.178 37.3921L147.019 42.1847H149.232L155.068 28.777H152.708ZM133.594 37.8731H135.715V23.6557H133.594V37.8731Z" fill="white"/>
<path fill-rule="evenodd" clip-rule="evenodd" d="M93.1877 11.4902C92.1716 11.4902 91.3191 11.8433 90.6351 12.547C89.9504 13.2503 89.6092 14.1125 89.6092 15.1279C89.6092 16.1433 89.9504 17.0055 90.6351 17.7088C91.3191 18.4125 92.1717 18.7644 93.1877 18.7644C94.2039 18.7644 95.0565 18.4125 95.7416 17.7087C96.4251 17.0055 96.7674 16.1433 96.7674 15.1279C96.7674 14.1179 96.4238 13.2581 95.7371 12.5516C95.0498 11.8446 94.1984 11.4902 93.1877 11.4902ZM90.6487 15.1279C90.6487 14.351 90.8962 13.7171 91.3853 13.2202C91.8764 12.7235 92.4754 12.4751 93.1877 12.4751C93.9002 12.4751 94.5003 12.7225 94.9902 13.2202C95.4804 13.717 95.7279 14.351 95.7279 15.1279C95.7279 15.9048 95.4804 16.5388 94.9902 17.0356C94.5002 17.5322 93.9001 17.7807 93.1877 17.7807C92.4754 17.7807 91.8765 17.5334 91.3854 17.0357C90.8962 16.5388 90.6487 15.9048 90.6487 15.1279Z" fill="white"/>
<path d="M62.5488 11.4925C61.5453 11.4925 60.6887 11.8409 59.9868 12.5381C59.2833 13.2347 58.9316 14.0996 58.9316 15.129C58.9316 16.1573 59.2833 17.0222 59.9868 17.7199C60.6887 18.4159 61.5453 18.7644 62.5488 18.7644C63.5941 18.7644 64.4506 18.4215 65.1072 17.7326C65.6881 17.1502 65.975 16.3721 65.975 15.4042C65.975 15.2349 65.9598 15.0587 65.9248 14.8755L65.9136 14.8168H62.4755V15.7812H64.9462C64.8865 16.321 64.7032 16.7383 64.4027 17.0399C63.9088 17.5337 63.2918 17.7806 62.5477 17.7806C61.8479 17.7806 61.2448 17.5356 60.7337 17.0434C60.2252 16.5536 59.97 15.917 59.97 15.1278C59.97 14.3387 60.2252 13.7021 60.7337 13.2123C61.2448 12.7201 61.8479 12.4751 62.5477 12.4751C63.3244 12.4751 63.925 12.7374 64.3609 13.2589L64.4116 13.3196L65.1135 12.6164L65.071 12.5657C64.7964 12.2383 64.4305 11.9785 63.9773 11.7837C63.5247 11.5899 63.0475 11.4925 62.5488 11.4925Z" fill="white"/>
<path d="M71.2181 11.6438H67.0897V18.612H71.2181V17.6283H68.1109V15.6096H70.9133V14.6451H68.1109V12.6264H71.2181V11.6438Z" fill="white"/>
<path d="M76.8214 11.6438H71.9879V12.6264H73.894V18.612H74.9153V12.6264H76.8214V11.6438Z" fill="white"/>
<path d="M81.0908 11.6438H80.0696V18.612H81.0908V11.6438Z" fill="white"/>
<path d="M86.8856 11.6438H82.0521V12.6264H83.9582V18.612H84.9795V12.6264H86.8856V11.6438Z" fill="white"/>
<path d="M99.0326 11.6438H97.8536V18.612H98.8726L98.8726 14.2886L98.8408 13.1752L102.23 18.612H103.258V11.6438H102.237V15.7091L102.237 15.7111L102.269 16.8228L99.0326 11.6438Z" fill="white"/>
<g filter="url(#filter0_ii_0_216)">
<path d="M23.843 12.3262C23.512 12.6765 23.3164 13.2201 23.3164 13.9241V39.0768C23.3164 39.7819 23.512 40.3244 23.843 40.6747L23.9271 40.7566L38.0172 26.6665V26.5004V26.3344L23.9271 12.2432L23.843 12.3262Z" fill="url(#paint0_linear_0_216)"/>
<path d="M42.7125 31.3651L38.0166 26.6669V26.5008V26.3348L42.7137 21.6377L42.8194 21.698L48.3843 24.8597C49.9731 25.7627 49.9731 27.2401 48.3843 28.1442L42.8194 31.3059L42.7125 31.3651Z" fill="url(#paint1_linear_0_216)"/>
<g filter="url(#filter1_i_0_216)">
<path d="M42.8199 31.3052L38.0159 26.5012L23.8428 40.6755C24.3659 41.2305 25.2314 41.2987 26.2061 40.746L42.8199 31.3052Z" fill="url(#paint2_linear_0_216)"/>
</g>
<path d="M42.8199 21.6969L26.2061 12.2572C25.2314 11.7034 24.3659 11.7727 23.8428 12.3277L38.017 26.502L42.8199 21.6969Z" fill="url(#paint3_linear_0_216)"/>
</g>
<defs>
<filter id="filter0_ii_0_216" x="23.3164" y="11.875" width="26.2595" height="29.2527" filterUnits="userSpaceOnUse" color-interpolation-filters="sRGB">
<feFlood flood-opacity="0" result="BackgroundImageFix"/>
<feBlend mode="normal" in="SourceGraphic" in2="BackgroundImageFix" result="shape"/>
<feColorMatrix in="SourceAlpha" type="matrix" values="0 0 0 0 0 0 0 0 0 0 0 0 0 0 0 0 0 0 127 0" result="hardAlpha"/>
<feOffset dy="-0.15"/>
<feComposite in2="hardAlpha" operator="arithmetic" k2="-1" k3="1"/>
<feColorMatrix type="matrix" values="0 0 0 0 0 0 0 0 0 0 0 0 0 0 0 0 0 0 0.12 0"/>
<feBlend mode="normal" in2="shape" result="effect1_innerShadow_0_216"/>
<feColorMatrix in="SourceAlpha" type="matrix" values="0 0 0 0 0 0 0 0 0 0 0 0 0 0 0 0 0 0 127 0" result="hardAlpha"/>
<feOffset dy="0.15"/>
<feComposite in2="hardAlpha" operator="arithmetic" k2="-1" k3="1"/>
<feColorMatrix type="matrix" values="0 0 0 0 1 0 0 0 0 1 0 0 0 0 1 0 0 0 0.25 0"/>
<feBlend mode="normal" in2="effect1_innerShadow_0_216" result="effect2_innerShadow_0_216"/>
</filter>
<filter id="filter1_i_0_216" x="23.8428" y="26.5012" width="18.9771" height="14.6265" filterUnits="userSpaceOnUse" color-interpolation-filters="sRGB">
<feFlood flood-opacity="0" result="BackgroundImageFix"/>
<feBlend mode="normal" in="SourceGraphic" in2="BackgroundImageFix" result="shape"/>
<feColorMatrix in="SourceAlpha" type="matrix" values="0 0 0 0 0 0 0 0 0 0 0 0 0 0 0 0 0 0 127 0" result="hardAlpha"/>
<feOffset dy="-0.15"/>
<feComposite in2="hardAlpha" operator="arithmetic" k2="-1" k3="1"/>
<feColorMatrix type="matrix" values="0 0 0 0 0 0 0 0 0 0 0 0 0 0 0 0 0 0 0.08 0"/>
<feBlend mode="normal" in2="shape" result="effect1_innerShadow_0_216"/>
</filter>
<linearGradient id="paint0_linear_0_216" x1="36.7682" y1="13.658" x2="17.682" y2="32.7443" gradientUnits="userSpaceOnUse">
<stop stop-color="#00A0FF"/>
<stop offset="0.0066" stop-color="#00A1FF"/>
<stop offset="0.2601" stop-color="#00BEFF"/>
<stop offset="0.5122" stop-color="#00D2FF"/>
<stop offset="0.7604" stop-color="#00DFFF"/>
<stop offset="1" stop-color="#00E3FF"/>
</linearGradient>
<linearGradient id="paint1_linear_0_216" x1="50.4525" y1="26.5008" x2="22.9343" y2="26.5008" gradientUnits="userSpaceOnUse">
<stop stop-color="#FFE000"/>
<stop offset="0.4087" stop-color="#FFBD00"/>
<stop offset="0.7754" stop-color="#FFA500"/>
<stop offset="1" stop-color="#FF9C00"/>
</linearGradient>
<linearGradient id="paint2_linear_0_216" x1="40.211" y1="29.1101" x2="14.3276" y2="54.9935" gradientUnits="userSpaceOnUse">
<stop stop-color="#FF3A44"/>
<stop offset="1" stop-color="#C31162"/>
</linearGradient>
<linearGradient id="paint3_linear_0_216" x1="20.2732" y1="3.95465" x2="31.8309" y2="15.5123" gradientUnits="userSpaceOnUse">
<stop stop-color="#32A071"/>
<stop offset="0.0685" stop-color="#2DA771"/>
<stop offset="0.4762" stop-color="#15CF74"/>
<stop offset="0.8009" stop-color="#06E775"/>
<stop offset="1" stop-color="#00F076"/>
</linearGradient>
</defs>
</svg>
