<svg width="25" height="9" viewBox="0 0 25 9" fill="none" xmlns="http://www.w3.org/2000/svg">
<path d="M8.96443 8.20064H10.9228L12.1469 0.472083H10.1884L8.96443 8.20064Z" fill="#4B84B5"/>
<path d="M5.44994 5.78784L7.31695 0.472083H9.42459L6.3089 8.20085H4.26845L2.56705 1.48632C1.46242 0.804718 0.518555 0.602946 0.518555 0.602946L0.518609 0.60275C0.518573 0.602742 0.518555 0.602739 0.518555 0.602739L0.554772 0.471876H3.64129C4.49059 0.471876 4.57027 1.16774 4.57027 1.16774L5.22922 4.64336C5.22922 4.64336 5.22919 4.64326 5.22912 4.64305L5.22922 4.64357L5.22902 4.64315L5.44994 5.78784Z" fill="#4B84B5"/>
<path fill-rule="evenodd" clip-rule="evenodd" d="M24.5186 8.20064H22.7204L22.491 7.05264H20.0015L19.5932 8.20064H17.5518L20.4725 1.04784C20.4725 1.04784 20.6495 0.471876 21.3765 0.471876H22.9507L24.5186 8.20064ZM21.5944 2.57457L20.5654 5.46678H22.1733L21.5944 2.57457Z" fill="#4B84B5"/>
<path d="M17.9844 0.670961L17.7049 2.33062C16.8668 1.85617 14.9596 1.74391 14.9594 2.61778C14.9594 2.96494 15.3909 3.20369 15.9111 3.49145C16.6999 3.92787 17.6924 4.47702 17.6924 5.68799C17.6924 7.62302 15.6763 8.33398 14.3399 8.33398C13.0039 8.33398 12.1294 7.89757 12.1294 7.89757L12.4206 6.16224C13.2224 6.82358 15.652 7.0115 15.652 5.96274C15.652 5.52204 15.1737 5.26215 14.6191 4.96078C13.8538 4.54496 12.9433 4.05017 12.9433 2.89253C12.9433 0.7704 15.2512 0.333984 16.223 0.333984C17.122 0.333984 17.9844 0.670961 17.9844 0.670961Z" fill="#4B84B5"/>
</svg>
